<svg width="41" height="42" viewBox="0 0 41 42" fill="none" xmlns="http://www.w3.org/2000/svg">
<path d="M23.0298 9.62158H18.7971C18.5149 9.62158 18.2703 9.71325 18.0634 9.89658C17.8565 10.0799 17.7342 10.3091 17.6966 10.5841L17.3579 13.1416C17.1134 13.2332 16.8831 13.3432 16.6672 13.4716C16.4504 13.5999 16.2386 13.7374 16.0317 13.8841L13.5767 12.8941C13.3133 12.8024 13.05 12.7932 12.7866 12.8666C12.5232 12.9399 12.3163 13.0957 12.1658 13.3341L10.0776 16.8816C9.92713 17.1199 9.8801 17.3766 9.93654 17.6516C9.99298 17.9266 10.1341 18.1466 10.3598 18.3116L12.4762 19.8791C12.4574 20.0074 12.448 20.1313 12.448 20.2509V20.9934C12.448 21.1122 12.4574 21.2357 12.4762 21.3641L10.3598 22.9316C10.1341 23.0966 9.99298 23.3166 9.93654 23.5916C9.8801 23.8666 9.92713 24.1232 10.0776 24.3616L12.1658 27.9091C12.2975 28.1657 12.4995 28.3263 12.7719 28.3909C13.0451 28.4547 13.3133 28.4407 13.5767 28.3491L16.0317 27.3591C16.2386 27.5057 16.455 27.6432 16.6807 27.7716C16.9065 27.8999 17.1322 28.0099 17.3579 28.1016L17.6966 30.6591C17.7342 30.9341 17.8565 31.1632 18.0634 31.3466C18.2703 31.5299 18.5149 31.6216 18.7971 31.6216H23.0298C23.312 31.6216 23.5566 31.5299 23.7635 31.3466C23.9704 31.1632 24.0927 30.9341 24.1303 30.6591L24.469 28.1016C24.7135 28.0099 24.9442 27.8999 25.1609 27.7716C25.3768 27.6432 25.5883 27.5057 25.7952 27.3591L28.2502 28.3491C28.5136 28.4407 28.7769 28.4499 29.0403 28.3766C29.3037 28.3032 29.5106 28.1474 29.6611 27.9091L31.7493 24.3616C31.8998 24.1232 31.9468 23.8666 31.8904 23.5916C31.8339 23.3166 31.6928 23.0966 31.4671 22.9316L29.3507 21.3641C29.3695 21.2357 29.3789 21.1122 29.3789 20.9934V20.2509C29.3789 20.1313 29.3601 20.0074 29.3225 19.8791L31.4389 18.3116C31.6646 18.1466 31.8057 17.9266 31.8621 17.6516C31.9186 17.3766 31.8716 17.1199 31.7211 16.8816L29.6329 13.3616C29.4824 13.1232 29.271 12.9626 28.9986 12.8798C28.7254 12.7976 28.4571 12.8024 28.1938 12.8941L25.7952 13.8841C25.5883 13.7374 25.3719 13.5999 25.1462 13.4716C24.9204 13.3432 24.6947 13.2332 24.469 13.1416L24.1303 10.5841C24.0927 10.3091 23.9704 10.0799 23.7635 9.89658C23.5566 9.71325 23.312 9.62158 23.0298 9.62158Z" stroke="#898989" stroke-width="2"/>
<circle cx="3.34783" cy="3.34783" r="3.34783" transform="matrix(1 0 0 -1 17.5656 23.9694)" stroke="#898989" stroke-width="2"/>
</svg>
