<svg width="41" height="42" viewBox="0 0 41 42" fill="none" xmlns="http://www.w3.org/2000/svg">
<path d="M29.5783 15.1082C29.5783 16.968 28.0706 18.4757 26.2107 18.4757C24.3509 18.4757 22.8431 16.968 22.8431 15.1082C22.8431 13.2483 24.3509 11.7406 26.2107 11.7406C28.0706 11.7406 29.5783 13.2483 29.5783 15.1082Z" stroke="#898989" stroke-width="2.02054"/>
<path d="M19.2913 24.2112L20.0411 23.7114C21.8681 22.4934 24.0148 21.8434 26.2107 21.8434C28.4065 21.8434 30.5532 22.4934 32.3802 23.7114L33.13 24.2112C34.0669 24.8358 34.6296 25.8873 34.6296 27.0132V28.6908C34.6296 29.5587 33.926 30.2623 33.0581 30.2623H26.2107H19.3633C18.4953 30.2623 17.7917 29.5587 17.7917 28.6908V27.0132C17.7917 25.8873 18.3545 24.8358 19.2913 24.2112Z" stroke="#898989" stroke-width="2.02054" stroke-linecap="round" stroke-linejoin="round"/>
<path d="M18.1594 15.1082C18.1594 16.968 16.6517 18.4757 14.7919 18.4757C12.932 18.4757 11.4243 16.968 11.4243 15.1082C11.4243 13.2483 12.932 11.7406 14.7919 11.7406C16.6517 11.7406 18.1594 13.2483 18.1594 15.1082Z" stroke="#898989" stroke-width="2.02054"/>
<path d="M14.7918 21.8434V21.8434C12.596 21.8434 10.4493 22.4934 8.62229 23.7114L7.8725 24.2112C6.93565 24.8358 6.37292 25.8873 6.37292 27.0132V28.6908C6.37292 29.5587 7.07652 30.2623 7.94446 30.2623H14.0054" stroke="#898989" stroke-width="2.02054" stroke-linecap="round" stroke-linejoin="round"/>
</svg>
